<svg xmlns="http://www.w3.org/2000/svg" xmlns:xlink="http://www.w3.org/1999/xlink" viewBox="0 0 66 52" fill="#fff" fill-rule="evenodd" stroke="#000" stroke-linecap="round" stroke-linejoin="round"><use xlink:href="#A" x=".5" y=".5"/><symbol id="A" overflow="visible"><g stroke="none"><path d="M6.682 35.759L0 28.286l20.452-7.445 3.183 8.747z" fill="#f89920"/><path d="M6.633 35.624l-.315 10.02 20.452-7.445-3.183-8.746z" fill="#ffbe22"/><path d="M63.47 15.106c2.918 8.455-6.485 19.564-21.112 24.888s-28.972 2.857-32.172-5.496z" fill="#f0670a"/><path d="M63.47 15.106c-3.18-8.374-17.538-10.85-32.18-5.522S7.238 26.04 10.186 34.499z" fill="#ffd00e"/><path d="M63.468 15.106c1.82 5.657-8.4 14.467-22.972 19.774S12.43 40 10.188 34.498z" fill="#f89920"/><path d="M63.47 15.106c-2.2-5.53-15.713-5.725-30.32-.4s-24.824 14.136-22.963 19.8z" fill="#ffbe22"/><g fill="#f0670a" fill-rule="nonzero"><path d="M38.888 7.431c-1.392-4.812-2.975-7.48-4.776-7.43-3.48.1-4.65 11.136-3.524 25.278 1.14 14.292 4.092 25.03 7.773 24.932 2.196-.058 3.432-3.57 3.866-9.668.01-.125-.13-.038-.122-.165 0 0-.018-.222-.1-.228l-.467-.03c-.382 5.92-1.54 9.333-3.196 9.376-3.026.08-5.948-10.542-7.04-24.273-1.076-13.506.082-24.428 2.83-24.507 1.3-.037 2.76 2.42 4.05 6.853l.705-.138z"/><path d="M21.64 3.998c-2.965 1.826 1.54 11.97 9.587 23.654 8.132 11.808 16.058 19.63 19.198 17.705 1.755-1.076 1.263-4.342-.998-9.27-.05-.12-.162-.205-.293-.22s-.258.045-.332.152a.36.36 0 0 0-.025.365c2.1 4.583 2.552 7.58 1.273 8.363-2.58 1.58-10.42-6.155-18.234-17.5-7.684-11.158-12.142-21.195-9.8-22.638 1.243-.766 4.2 1.082 8.11 5.075.044.044.293.303.35.32.12.037.06-.22.157-.315.068-.066.107-.157.108-.252a.36.36 0 0 0-.102-.254c-4.179-4.277-7.312-6.227-8.999-5.187z"/></g></g></symbol></svg>